HIERARCHY
ROOT Hips
{
     OFFSET 1.88212 96.90440 -13.34250
     CHANNELS 6 Xposition Yposition Zposition Zrotation Xrotation Yrotation
     JOINT Spine
     {
          OFFSET 0.00000 11.89050 0.00000
          CHANNELS 3 Zrotation Xrotation Yrotation
          JOINT Spine1
          {
               OFFSET -0.00000 25.65740 0.12766
               CHANNELS 3 Zrotation Xrotation Yrotation
               JOINT HEad
               {
                    OFFSET 0.00000 8.73416 0.01134
                    CHANNELS 3 Zrotation Xrotation Yrotation
                    End Site
                    {
                         OFFSET -0.29000 12.77420 2.51395
                    }
               }
               JOINT LeftShoulder1
               {
                    OFFSET 8.99000 -0.36225 -0.22000
                    CHANNELS 3 Zrotation Xrotation Yrotation
                    JOINT LeftArm
                    {
                         OFFSET 10.28270 -0.00338 0.32212
                         CHANNELS 3 Zrotation Xrotation Yrotation
                         JOINT LeftForeArm
                         {
                              OFFSET 32.76690 0.09914 -1.42434
                              CHANNELS 3 Zrotation Xrotation Yrotation
                              JOINT LeftHand
                              {
                                   OFFSET 27.56430 0.08536 1.02216
                                   CHANNELS 3 Zrotation Xrotation Yrotation
                                   End Site
                                   {
                                        OFFSET 16.74430 -0.60000 1.50291
                                   }
                              }
                         }
                    }
               }
               JOINT RightShoulder
               {
                    OFFSET -8.99000 -0.36225 -0.22000
                    CHANNELS 3 Zrotation Xrotation Yrotation
                    JOINT RightArm
                    {
                         OFFSET -10.28270 -0.00338 0.32212
                         CHANNELS 3 Zrotation Xrotation Yrotation
                         JOINT RightForeArm
                         {
                              OFFSET -32.89710 0.09914 -1.42434
                              CHANNELS 3 Zrotation Xrotation Yrotation
                              JOINT RightHand
                              {
                                   OFFSET -27.49210 0.08536 1.02216
                                   CHANNELS 3 Zrotation Xrotation Yrotation
                                   End Site
                                   {
                                        OFFSET -16.63120 -0.60000 1.50291
                                   }
                              }
                         }
                    }
               }
          }
     }
     JOINT LeftUpLeg
     {
          OFFSET 8.94580 -8.66707 0.10165
          CHANNELS 3 Zrotation Xrotation Yrotation
          JOINT LeftLeg
          {
               OFFSET 0.00000 -44.42270 1.37270
               CHANNELS 3 Zrotation Xrotation Yrotation
               JOINT LeftFoot
               {
                    OFFSET -0.25355 -42.09240 -1.46059
                    CHANNELS 3 Zrotation Xrotation Yrotation
                    JOINT LeftToes
                    {
                         OFFSET -0.04000 -4.41509 8.49910
                         CHANNELS 3 Zrotation Xrotation Yrotation
                         End Site
                         {
                              OFFSET 0.08000 -0.04745 9.77979
                         }
                    }
               }
          }
     }
     JOINT RightUpLeg
     {
          OFFSET -8.94580 -8.66707 0.10165
          CHANNELS 3 Zrotation Xrotation Yrotation
          JOINT RightLeg
          {
               OFFSET 0.00000 -44.42270 1.37270
               CHANNELS 3 Zrotation Xrotation Yrotation
               JOINT RightFoot
               {
                    OFFSET 0.25355 -42.09240 -1.46059
                    CHANNELS 3 Zrotation Xrotation Yrotation
                    JOINT RightToes
                    {
                         OFFSET 0.04000 -4.41509 8.49910
                         CHANNELS 3 Zrotation Xrotation Yrotation
                         End Site
                         {
                              OFFSET -0.08000 -0.13745 9.77979
                         }
                    }
               }
          }
     }
}
MOTION
Frames: 13
Frame Time: 0.01667
-114.45138 95.43016 23.81761 2.05455 -11.64939 4.47738 15.34147 18.48449 2.32972 0.03412 -0.01703 -0.00876 -31.05434 28.46607 32.87675 5.04579 -0.61390 7.29941 14.37047 -84.12224 21.31231 -39.12281 48.18286 -96.86385 6.03349 6.51423 2.56886 28.90933 4.55961 12.30536 31.70420 -22.60042 56.31386 21.48742 37.47382 103.16601 -7.53838 11.73358 0.63039 9.34853 -9.33332 11.80636 13.76006 24.40124 -1.49876 -0.20013 -0.27812 -0.07776 -23.28905 -14.66072 -3.43237 -17.35381 -21.84784 -23.35741 -46.12513 62.78375 52.64510 2.25451 -0.29104 0.49103 11.24659 0.32160 -16.91204 
-116.84479 94.81287 22.73613 2.97502 -10.67096 6.06458 12.10025 18.92723 4.34065 0.03394 -0.02209 -0.01364 -30.51649 25.49768 30.97853 7.39795 -1.97891 6.04420 15.76358 -82.98321 26.14828 -42.30618 48.08154 -95.11102 4.80943 11.37797 -5.23521 30.88425 2.69932 11.14018 31.55276 -17.62760 55.56884 20.15746 36.43483 104.72379 -8.06071 14.28796 0.45803 12.08401 -11.74733 10.47924 9.06886 25.15986 2.87822 7.01014 -0.24514 -0.05267 -30.64096 -12.89542 -6.00773 -21.44912 -20.72265 -23.35911 -54.21261 62.53300 64.12682 4.02899 -0.06820 0.10807 13.83628 -6.21302 -17.25827 
-119.48837 94.10530 21.59515 3.76413 -9.71398 7.61994 9.44647 19.05874 5.96806 0.03023 -0.01950 -0.01291 -30.39843 23.10366 29.37007 9.51035 -3.02045 4.85851 11.36572 -78.92173 27.36122 -40.33410 47.44844 -100.65910 4.17339 11.53446 -1.47220 32.43883 1.26452 10.26562 31.42796 -14.71276 55.02596 19.39249 35.47236 106.14447 -8.29978 15.61827 0.16609 15.30238 -14.57262 10.34000 4.07572 26.30763 5.92570 14.33736 -0.20819 -0.02023 -37.33216 -11.50661 -8.06827 -24.47991 -18.77308 -22.03138 -56.23285 60.48295 70.43403 10.83697 -0.25209 0.20263 11.52489 -10.75018 -21.19332 
-122.29321 93.32159 20.40676 4.37726 -8.72451 9.08423 7.32014 18.91535 7.29316 0.02485 -0.01648 -0.01290 -30.51262 21.17460 28.03728 10.92428 -3.80140 3.70824 8.90662 -76.20306 28.10535 -39.18504 46.56757 -104.01056 3.69214 13.65974 -4.99594 33.58009 0.16793 9.58983 31.57665 -13.04083 54.83912 18.96892 34.71279 107.22955 -7.93538 16.06257 0.06474 18.08560 -17.18065 10.44665 -0.57966 27.15037 8.57764 21.49855 -0.16137 -0.00050 -43.41914 -10.41995 -9.58685 -26.39143 -16.09667 -19.52833 -50.42134 57.11189 71.06633 10.35056 -0.07042 0.07418 8.90887 -29.86528 -26.89920 
-125.12810 92.51833 19.18207 4.75841 -7.68098 10.40601 5.70280 18.54063 8.38379 0.02029 -0.01281 -0.01215 -30.72733 19.58815 26.94148 11.76017 -4.28806 2.61878 7.72764 -74.55822 28.66113 -38.53166 45.70187 -105.82378 3.57461 13.05913 -2.31802 34.12592 -0.63983 9.02083 32.31227 -12.13059 55.12235 18.82358 34.19265 107.75835 -4.62618 -1.97271 8.30157 20.54152 -19.57735 10.75449 -4.63504 27.59251 10.71259 28.19548 -0.11583 -0.00080 -48.84625 -9.23289 -10.74957 -27.34587 -12.77137 -16.08233 -39.54773 53.79085 64.82843 14.89121 -0.33612 -0.01761 2.69927 -39.32306 -26.15407 
-127.89787 91.75314 17.93283 4.92490 -6.61511 11.55872 4.53162 18.01663 9.28753 0.01616 -0.00921 -0.01174 -30.96488 18.22765 26.06225 12.13435 -4.45931 1.59869 7.77072 -73.81694 29.62157 -38.28541 45.09717 -106.67982 3.59648 13.55986 -4.23186 34.17832 -1.13701 8.48540 33.53189 -11.70645 55.90913 18.88965 33.89034 107.72124 -4.51586 6.18101 3.89389 22.68160 -21.72288 11.20672 -7.86238 27.57370 12.20512 34.18531 -0.07966 -0.01479 -53.72446 -8.34769 -11.67238 -27.54855 -8.91008 -11.86980 -27.42355 49.75212 54.68242 13.16132 -0.06498 0.01898 -6.79752 -47.68237 -30.18651 
-130.54936 91.05779 16.68917 4.90105 -5.57871 12.54366 3.76363 17.42696 10.01863 0.01305 -0.00621 -0.01250 -31.20005 16.99363 25.39639 12.22826 -4.29960 0.61880 8.71630 -73.82544 31.17454 -38.30723 44.78206 -106.88478 3.79094 12.65012 -2.59272 33.68279 -1.35880 7.72901 35.29452 -11.41745 57.24499 19.04770 33.88651 107.47934 -4.71358 1.85924 5.80573 24.48986 -23.57300 11.72577 -10.12890 27.10291 12.94615 39.29462 -0.05248 -0.03157 -57.44780 -7.11147 -12.15959 -27.21689 -4.64137 -7.02380 -16.42543 44.38942 43.01046 13.59856 -0.11058 -0.03757 -4.63337 -41.58803 -31.96334 
-133.08427 90.42937 15.51940 4.72038 -4.63637 13.37553 3.35148 16.84598 10.58030 0.01053 -0.00374 -0.01349 -31.43248 15.85887 24.97035 12.08306 -3.86661 -0.32526 10.50994 -74.37570 33.51138 -38.53399 44.81422 -106.77680 3.98426 12.38165 -3.75663 32.92267 -1.30931 6.83812 37.26174 -11.13709 58.93418 19.23954 34.06703 106.96568 -4.61845 6.66864 2.74526 25.81665 -25.13839 12.16846 -10.04645 26.59858 10.51150 42.13786 0.02319 -0.05220 -60.01131 -6.72825 -10.77100 -26.47730 -0.10290 -1.63011 -7.80936 37.63810 31.27898 11.70481 -0.08856 0.02633 -16.38502 -51.00541 -27.21277 
-135.50691 89.84688 14.44677 4.43752 -3.83878 14.07427 3.22380 16.33059 10.97735 0.00855 -0.00162 -0.01449 -31.65904 14.82855 24.81273 11.75751 -3.17972 -1.20701 12.98650 -75.33213 36.61166 -38.96317 45.18214 -106.45141 4.22241 11.33931 -2.76978 32.10149 -0.98975 5.80070 39.17987 -10.84872 60.84560 19.47662 34.35625 106.35915 -4.92502 4.42631 3.57418 26.54995 -26.46200 12.41548 -8.30366 25.98686 5.66132 43.22040 0.03255 -0.03662 -61.06811 -6.37672 -7.66965 -25.92701 4.04657 3.33525 -1.84849 30.27778 21.15323 11.78344 -0.09690 -0.02731 -9.82088 -42.13868 -27.08503 
-137.83105 89.32755 13.48499 4.13069 -3.26000 14.67371 3.29904 15.94304 11.20189 0.00658 -0.00117 -0.01511 -31.87463 13.93845 24.93665 11.27714 -2.40897 -1.96721 15.87014 -76.44026 40.20224 -39.62376 45.85587 -106.00545 4.39275 10.83288 -3.49282 31.41290 -0.52125 4.82160 40.81858 -10.55832 62.59664 19.71342 34.69767 105.72669 -4.95836 7.36578 1.50105 26.61023 -27.51214 12.36192 -5.38145 25.23665 -1.05261 42.93583 0.00559 0.00822 -48.33316 3.89234 -9.69825 -25.55149 7.74560 7.92293 3.31130 24.64520 11.29503 8.08147 -0.17187 0.06332 -9.67094 -44.19397 -22.18300 
-140.01030 88.85117 12.65798 3.81936 -2.89879 15.20891 3.54754 15.67378 11.23153 0.00522 -0.00016 -0.01560 -32.10278 13.24651 25.35649 10.77271 -1.58651 -2.67977 19.21866 -77.63357 44.37586 -40.45462 46.71965 -105.39490 4.56990 10.18550 -2.97310 30.68350 0.02745 3.87221 42.39274 -10.21422 64.16933 19.96001 35.01952 105.10773 -5.36771 6.23315 1.86368 26.15248 -28.21839 12.03463 -2.84723 23.92279 -6.69035 42.59980 -0.00507 -0.00085 -57.67857 -0.50528 -1.69939 -25.34562 10.91707 12.12689 8.11710 19.82920 2.46847 7.46948 -0.13802 0.00651 -8.59046 -42.08969 -18.61349 
-141.99565 88.43294 11.96780 3.51268 -2.74974 15.70404 3.96593 15.48541 11.06765 0.00458 -0.00068 -0.01441 -31.90730 13.79874 27.11799 10.34599 -0.88371 -3.19710 22.02882 -78.79819 48.05957 -41.45574 47.65969 -104.59421 4.60884 10.02168 -3.55289 30.11672 0.52341 3.11141 43.71745 -9.78777 65.34444 20.17583 35.29634 104.47315 -5.52929 8.04140 0.65461 25.36320 -28.53248 11.51350 -0.51843 22.36841 -11.35589 41.92644 -0.01003 0.00706 -57.16418 2.50566 1.42954 -25.29041 13.57465 15.93171 12.42847 15.45680 -4.73540 4.18788 -0.18929 0.03456 -7.58609 -43.10258 -14.23747 
-143.83218 88.18216 11.34188 3.21696 -2.77944 16.15917 4.49368 15.35429 10.74554 0.00138 0.00006 -0.01317 -31.73752 14.44310 28.94593 9.78405 -0.14629 -3.55353 24.19250 -80.05066 50.85464 -42.47913 48.53845 -103.64341 4.62749 9.71360 -3.15301 29.50918 1.10975 2.48165 45.00895 -9.34142 66.27445 20.33737 35.51934 103.85762 -5.70531 7.40258 0.72798 24.46063 -28.45958 10.91040 1.55358 20.76061 -15.01284 40.91734 -0.01245 0.01153 -59.32569 1.75268 6.57823 -24.62432 15.12430 18.45835 15.34251 12.47619 -9.36747 3.54653 -0.14316 0.01972 -8.68707 -43.12540 -11.76486 
